<?xml version="1.0" encoding="UTF-8"?>
<svg id="_레이어_1" data-name="레이어_1" xmlns="http://www.w3.org/2000/svg" version="1.1" viewBox="0 0 1000 1000">
  <!-- Generator: Adobe Illustrator 30.4.0, SVG Export Plug-In . SVG Version: 2.1.4 Build 226)  -->
  <defs>
    <style>
      .st0 {
        fill: #fff;
      }
    </style>
  </defs>
  <g>
    <path d="M138.63,942.63c0-11.91.29-37.18.29-51.36h556.33c79.02,0,144.17-65.2,144.17-137.59v-121.31c0-64.56-52.13-141.43-144.17-141.43h-375.3c-96.43,0-199.66-98.29-199.66-216.78S203.38,61.13,329.31,57.37h417.26v40.65h-418.9c-73.24.22-128.39,52.52-145.7,88.25-21.9,45.2-20.84,51.2-20.84,87.88,0,42.09,3.98,61.18,20.84,88.08,47.53,75.83,103.29,88.59,146.95,88.69h366.32c140,0,184.46,113.29,184.46,181.44v121.31c0,112.14-65.49,188.95-184.46,188.95H138.63Z"/>
    <path d="M718.9,597.05l.32,266.9c0,4.99-4.04,9.04-9.03,9.05l-57.06.08c-4.99,0-9.05-4.04-9.05-9.03l-.32-266.9c0-4.99,4.04-9.04,9.03-9.05l57.06-.08c4.99,0,9.05,4.04,9.05,9.03ZM698.97,653.99v-45.5c-10.62,0-20.01-.23-32.03,0,.04,22.1.19,23.92,0,45.5l16.24-15.32c6.32,6.18,9.94,9.88,15.78,15.32Z"/>
    <rect x="366.12" y="186.64" width="63.98" height="248.21" rx="10.07" ry="10.07"/>
    <rect x="447.48" y="230.02" width="52.52" height="204.81" rx="9.93" ry="9.93"/>
    <rect x="519.17" y="164.32" width="63.72" height="267.91" rx="9.99" ry="9.99" transform="translate(17.67 -30.55) rotate(3.23)"/>
    <rect x="622.09" y="226.67" width="60.12" height="203.84" rx="10.05" ry="10.05" transform="translate(-63.22 181.92) rotate(-15.15)"/>
  </g>
  <path class="st0" d="M459.34,613.45"/>
  <path d="M574.6,872.86l-47.94-12.77c-3.18-.85-5.15-3.82-4.4-6.63l53.47-200.73c.75-2.81,3.94-4.41,7.12-3.56l47.94,12.77c3.18.85,5.15,3.82,4.4,6.63l-53.47,200.73c-.75,2.81-3.94,4.41-7.12,3.56Z"/>
  <rect x="291.38" y="238.96" width="58.64" height="195.87" rx="10.17" ry="10.17"/>
  <rect x="263.36" y="631.19" width="66.34" height="242.49" rx="10.03" ry="10.03"/>
  <rect x="347.19" y="561.96" width="77.38" height="311.72" rx="10.81" ry="10.81"/>
  <rect x="446.68" y="617.85" width="63.51" height="254.81" rx="10.01" ry="10.01" transform="translate(-31.03 20.86) rotate(-2.42)"/>
</svg>